#!OML:ASF I:\golf\golf\golf 2\Subject 1\2002-09-07\Subject1.ASF
:FULLY-SPECIFIED
:DEGREES
140
root -5.7986 17.8539 1.67634 -48.278 85.442 -65.4303
lowerback 5.22226 2.41885 -1.5182
upperback 3.2938 3.30116 4.59291
thorax 0.116194 1.65372 5.4329
lowerneck -16.7939 -1.64731 1.4161
upperneck 40.6069 1.48227 -5.78994
head 18.0172 0.589767 -2.48054
rclavicle -3.33958e-014 -1.74931e-014
rhumerus -6.81961 0.769011 -101.714
rradius 25.4701
rwrist -41.3405
rhand -17.5602 -7.48113
rfingers 7.12502
rthumb 8.6948 -37.2821
lclavicle -3.33958e-014 -1.74931e-014
lhumerus -10.4508 -54.0571 108.961
lradius 26.3036
lwrist 39.1781
lhand -2.13013 65.7329
lfingers 7.12502
lthumb -156.451 85.6887
rfemur -30.183 1.51072 12.8007
rtibia 29.6016
rfoot -9.63715 -10.1562
rtoes -16.2242
lfemur -30.5549 7.40636 -9.63758
ltibia 31.2277
lfoot -11.9729 0.617894
ltoes -22.3694
141
root -5.80417 17.85 1.686 -42.7773 85.1988 -59.9105
lowerback 5.28741 2.49131 -1.86696
upperback 3.29722 3.38006 4.55963
thorax 0.0582604 1.68903 5.58863
lowerneck -16.6917 -1.56822 1.41905
upperneck 40.5075 1.60973 -5.84353
head 17.9416 0.63065 -2.47697
rclavicle -8.22969e-014 -5.64548e-014
rhumerus -7.07674 0.966784 -101.877
rradius 25.9067
rwrist -41.8801
rhand -17.8646 -7.53156
rfingers 7.12502
rthumb 8.401 -37.3445
lclavicle -8.22969e-014 -5.64548e-014
lhumerus -10.3732 -55.4668 108.65
lradius 26.4428
lwrist 39.4573
lhand -1.39618 66.0647
lfingers 7.12502
lthumb -155.748 85.4491
rfemur -30.4236 1.78635 12.7543
rtibia 29.7985
rfoot -10.9776 -9.10668
rtoes 17.5368
lfemur -30.4637 7.60286 -9.64226
ltibia 31.3677
lfoot -12.0401 0.916147
ltoes -22.4929
142
root -5.80928 17.8433 1.694 -38.1623 84.8118 -55.2736
lowerback 5.34962 2.57999 -2.13433
upperback 3.30119 3.48545 4.56489
thorax 0.000956544 1.73922 5.73689
lowerneck -16.6115 -1.48884 1.40208
upperneck 40.4244 1.75126 -5.90623
head 17.883 0.673314 -2.47234
rclavicle 3.85642e-014 4.37326e-014
rhumerus -7.40949 1.51785 -101.951
rradius 26.4558
rwrist -42.8595
rhand -18.6093 -7.51125
rfingers 7.12502
rthumb 7.6823 -37.3517
lclavicle 3.85642e-014 4.37326e-014
lhumerus -10.235 -56.3098 108.379
lradius 26.194
lwrist 38.9804
lhand 0.0552659 64.9544
lfingers 7.12502
lthumb -154.357 86.7525
rfemur -30.6573 2.10429 12.8105
rtibia 29.9792
rfoot -9.37821 -9.32366
rtoes 3.9525
lfemur -30.3775 7.95658 -9.57545
ltibia 31.5196
lfoot -12.1118 1.15247
ltoes -23.5338
143
root -5.81367 17.8376 1.69987 -34.1086 84.4796 -51.1825
lowerback 5.384 2.6353 -2.3645
upperback 3.33395 3.5462 4.52691
thorax -0.00192985 1.76587 5.82349
lowerneck -16.6013 -1.39485 1.3707
upperneck 40.4026 1.93531 -5.98001
head 17.8826 0.729878 -2.46551
rclavicle -3.89618e-014 -1.90833e-014
rhumerus -7.70968 1.93639 -102.052
rradius 27.0407
rwrist -43.6806
rhand -19.612 -7.40364
rfingers 7.12502
rthumb 6.71437 -37.2772
lclavicle -3.89618e-014 -1.90833e-014
lhumerus -10.1798 -57.5002 108.139
lradius 26.3352
lwrist 39.5699
lhand -0.00615992 64.7173
lfingers 7.12502
lthumb -154.416 86.9811
rfemur -30.8575 2.32823 12.8002
rtibia 30.1489
rfoot -9.67906 -9.44967
rtoes -12.5068
lfemur -30.2905 8.24359 -9.5831
ltibia 31.6724
lfoot -12.1492 1.38288
ltoes -23.9703
144
root -5.81778 17.8345 1.70722 -30.3865 84.0703 -47.4317
lowerback 5.39579 2.69019 -2.58075
upperback 3.37204 3.60656 4.47654
thorax 0.014517 1.79187 5.89035
lowerneck -16.545 -1.2732 1.39237
upperneck 40.2806 2.16082 -6.13587
head 17.8168 0.797918 -2.49457
rclavicle -1.86858e-014 -2.78299e-014
rhumerus -7.93298 2.06758 -102.22
rradius 27.514
rwrist -44.1193
rhand -20.3698 -7.31925
rfingers 7.12502
rthumb 5.9828 -37.2148
lclavicle -1.86858e-014 -2.78299e-014
lhumerus -10.1327 -58.8244 107.798
lradius 26.5187
lwrist 40.0683
lhand 0.386084 64.7888
lfingers 7.12502
lthumb -154.04 86.9641
rfemur -31.0724 2.58173 12.8119
rtibia 30.3141
rfoot -9.49843 -8.78619
rtoes 4.93232
lfemur -30.1815 8.45762 -9.54568
ltibia 31.8133
lfoot -12.1961 1.79419
ltoes -24.2935
145
root -5.82375 17.8285 1.71678 -26.8478 83.5663 -43.8541
lowerback 5.47925 2.78585 -2.82125
upperback 3.38931 3.71928 4.41243
thorax -0.0377699 1.84558 5.94861
lowerneck -16.4566 -1.15043 1.43754
upperneck 40.102 2.35407 -6.26005
head 17.7075 0.859977 -2.51679
rclavicle -1.27222e-014 2.22639e-014
rhumerus -8.11424 2.00195 -102.381
rradius 27.8952
rwrist -44.4036
rhand -20.7115 -7.38457
rfingers 7.12502
rthumb 5.65289 -37.2892
lclavicle -1.27222e-014 2.22639e-014
lhumerus -10.1684 -60.2256 107.496
lradius 26.7193
lwrist 40.5274
lhand 0.951543 64.6694
lfingers 7.12502
lthumb -153.499 87.164
rfemur -31.2953 2.97703 12.8135
rtibia 30.47
rfoot -9.36961 -8.57984
rtoes 4.24776
lfemur -30.0327 8.7074 -9.48252
ltibia 31.9343
lfoot -12.2968 2.33268
ltoes -26.0217
146
root -5.82992 17.8213 1.7271 -23.9953 83.1142 -40.9109
lowerback 5.60352 2.85556 -3.04835
upperback 3.44028 3.79734 4.33918
thorax -0.0725769 1.88146 5.99079
lowerneck -16.4792 -1.03258 1.33343
upperneck 40.0281 2.5313 -6.20498
head 17.6826 0.916697 -2.43697
rclavicle -4.21423e-014 7.95139e-016
rhumerus -8.24153 1.78916 -102.481
rradius 28.2658
rwrist -44.5418
rhand -21.0585 -7.59027
rfingers 7.12502
rthumb 5.31783 -37.5036
lclavicle -4.21423e-014 7.95139e-016
lhumerus -10.0519 -61.5455 107.147
lradius 26.8082
lwrist 40.7407
lhand 1.75075 64.2397
lfingers 7.12502
lthumb -152.734 87.7114
rfemur -31.456 3.27415 12.811
rtibia 30.6473
rfoot -9.34099 -8.3106
rtoes 4.18396
lfemur -29.8198 8.95564 -9.44199
ltibia 32.01
lfoot -12.3798 2.70981
ltoes -27.1478
147
root -5.83457 17.8174 1.73406 -22.3919 82.7573 -39.2164
lowerback 5.68496 2.80843 -3.20571
upperback 3.52087 3.72576 4.33118
thorax -0.0338057 1.84144 6.07597
lowerneck -16.5262 -0.846544 1.11734
upperneck 39.9376 2.86746 -6.18437
head 17.6661 1.01434 -2.32219
rclavicle 6.83819e-014 5.56597e-014
rhumerus -8.38193 1.8673 -102.495
rradius 28.705
rwrist -44.718
rhand -21.5878 -7.90494
rfingers 7.12502
rthumb 4.80678 -37.8304
lclavicle 6.83819e-014 5.56597e-014
lhumerus -9.69887 -62.7439 106.645
lradius 26.8547
lwrist 41.0743
lhand 2.32523 63.9898
lfingers 7.12502
lthumb -152.184 88.0489
rfemur -31.5183 3.33148 12.8982
rtibia 30.7169
rfoot -10.9941 -6.96614
rtoes 29.459
lfemur -29.6721 9.12344 -9.36205
ltibia 32.1632
lfoot -12.4449 2.9509
ltoes -27.1253
148
root -5.83969 17.8073 1.73825 -21.2677 82.415 -38.0326
lowerback 5.7453 2.71686 -3.35826
upperback 3.57954 3.59655 4.36465
thorax -0.000190543 1.77298 6.20692
lowerneck -16.4967 -0.608002 1.00041
upperneck 39.7791 3.30326 -6.31363
head 17.6026 1.14836 -2.27272
rclavicle 3.57812e-015 3.02153e-014
rhumerus -8.56029 2.2012 -102.475
rradius 29.1928
rwrist -45.1151
rhand -22.1748 -8.14505
rfingers 7.12502
rthumb 4.24001 -38.0826
lclavicle 3.57812e-015 3.02153e-014
lhumerus -9.29351 -63.7288 106.166
lradius 26.8412
lwrist 41.3273
lhand 2.7153 63.7845
lfingers 7.12502
lthumb -151.812 88.315
rfemur -31.5929 3.3575 12.9981
rtibia 30.7453
rfoot -11.99 -5.10616
rtoes 47.7306
lfemur -29.5885 9.21124 -9.24867
ltibia 32.3379
lfoot -12.4183 3.44319
ltoes -29.0304
149
root -5.84445 17.8212 1.74412 -19.7411 81.9321 -36.4637
lowerback 5.78816 2.71583 -3.52074
upperback 3.60942 3.58516 4.33728
thorax 0.00120812 1.76418 6.27068
lowerneck -16.4017 -0.393864 1.0746
upperneck 39.6375 3.64635 -6.46943
head 17.5282 1.27388 -2.28806
rclavicle 2.10712e-014 -2.06736e-014
rhumerus -8.76363 2.10056 -102.526
rradius 29.6981
rwrist -45.3948
rhand -22.779 -8.19943
rfingers 7.12502
rthumb 3.65655 -38.1478
lclavicle 2.10712e-014 -2.06736e-014
lhumerus -8.99178 -64.5279 105.824
lradius 26.7109
lwrist 41.1959
lhand 3.28457 63.2522
lfingers 7.12502
lthumb -151.268 88.9384
rfemur -31.6451 3.51746 13.1046
rtibia 30.6621
rfoot -10.2895 -6.74166
rtoes 17.0727
lfemur -29.3702 9.08414 -8.94956
ltibia 32.5735
lfoot -12.6993 3.25123
ltoes -24.0265
150
root -5.84745 17.8213 1.75291 -18.4694 81.3525 -35.1383
lowerback 5.81514 2.7411 -3.62264
upperback 3.63774 3.61045 4.26261
thorax 0.0110414 1.77416 6.24777
lowerneck -16.2907 -0.182147 1.26897
upperneck 39.5334 3.94746 -6.62425
head 17.4706 1.40207 -2.33427
rclavicle -3.77691e-015 -2.70347e-014
rhumerus -8.98591 1.69851 -102.664
rradius 30.2122
rwrist -45.7114
rhand -24.2653 -7.75284
rfingers 7.12502
rthumb 2.22111 -37.721
lclavicle -3.77691e-015 -2.70347e-014
lhumerus -8.77759 -65.4846 105.464
lradius 26.7448
lwrist 41.1162
lhand 3.73677 62.9346
lfingers 7.12502
lthumb -150.836 89.33
rfemur -31.7016 3.67557 13.2967
rtibia 30.5702
rfoot -9.77307 -6.76739
rtoes -2.03962
lfemur -29.2279 9.35104 -8.78557
ltibia 32.7796
lfoot -12.7709 3.53322
ltoes -22.8099
